<?xml version="1.0" encoding="UTF-8" standalone="no"?>
<!-- Created with Inkscape (http://www.inkscape.org/) -->

<svg
   xmlns:dc="http://purl.org/dc/elements/1.1/"
   xmlns:cc="http://creativecommons.org/ns#"
   xmlns:rdf="http://www.w3.org/1999/02/22-rdf-syntax-ns#"
   xmlns:svg="http://www.w3.org/2000/svg"
   xmlns="http://www.w3.org/2000/svg"
   xmlns:xlink="http://www.w3.org/1999/xlink"
   xmlns:sodipodi="http://sodipodi.sourceforge.net/DTD/sodipodi-0.dtd"
   xmlns:inkscape="http://www.inkscape.org/namespaces/inkscape"
   width="209"
   height="137"
   id="svg2"
   version="1.1"
   inkscape:version="0.48.4 r9939"
   sodipodi:docname="logo.svg">
  <defs
     id="defs4" />
  <sodipodi:namedview
     id="base"
     pagecolor="#ffffff"
     bordercolor="#666666"
     borderopacity="1.0"
     inkscape:pageopacity="0.0"
     inkscape:pageshadow="2"
     inkscape:zoom="4.353125"
     inkscape:cx="123.2448"
     inkscape:cy="90"
     inkscape:document-units="px"
     inkscape:current-layer="layer3"
     showgrid="false"
     inkscape:window-width="1920"
     inkscape:window-height="1148"
     inkscape:window-x="0"
     inkscape:window-y="0"
     inkscape:window-maximized="1"
     showguides="true"
     inkscape:guide-bbox="true" />
  <metadata
     id="metadata7">
    <rdf:RDF>
      <cc:Work
         rdf:about="">
        <dc:format>image/svg+xml</dc:format>
        <dc:type
           rdf:resource="http://purl.org/dc/dcmitype/StillImage" />
        <dc:title></dc:title>
      </cc:Work>
    </rdf:RDF>
  </metadata>
  <g
     inkscape:groupmode="layer"
     id="layer2"
     inkscape:label="レイヤー"
     style="display:none"
     sodipodi:insensitive="true"
     transform="translate(0,-43)">
    <image
       y="0"
       x="0"
       id="image3012"
       xlink:href="file:///home/ken/%E3%83%87%E3%82%B9%E3%82%AF%E3%83%88%E3%83%83%E3%83%97/A_bison_in_Caprock_Canyon_State_Park.jpg"
       height="180"
       width="320" />
  </g>
  <g
     style="display:none"
     inkscape:label="レイヤー コピー"
     id="g3060"
     inkscape:groupmode="layer"
     transform="translate(0,-43)">
    <path
       inkscape:connector-curvature="0"
       id="path3064"
       d="m 110,160.17949 c 0,-1.39325 3.39514,-2.49407 3.81426,-1.23672 0.19382,0.58148 0.81305,1.05723 1.37606,1.05723 0.56301,0 0.77579,-0.64593 0.47285,-1.43539 -0.30295,-0.78947 -0.0136,-1.65394 0.64301,-1.92105 0.6566,-0.26712 -0.0733,-0.52119 -1.62192,-0.56461 -1.54866,-0.0434 -3.68616,0.38688 -4.75,0.95623 -1.33333,0.71358 -1.93426,0.71358 -1.93426,0 0,-0.56935 0.45,-1.03518 1,-1.03518 1.25631,0 1.3122,-3.27848 0.0776,-4.55 -0.56533,-0.58223 -0.34025,-2.49851 0.58142,-4.95 2.63065,-6.99706 2.7705,-8.5 0.79093,-8.5 -0.98078,0 -1.49537,-0.28788 -1.14352,-0.63972 0.35185,-0.35185 -0.79679,-1.36435 -2.55252,-2.25 -2.69312,-1.3585 -3.23356,-2.23571 -3.45647,-5.61028 -0.14532,-2.2 0.0223,-4.675 0.37254,-5.5 0.35021,-0.825 0.70814,-1.95 0.79538,-2.5 0.60671,-3.82465 3.12741,-10.5 3.96495,-10.5 0.5585,0 -0.49151,-1.3764 -2.33335,-3.05866 -1.88625,-1.72282 -3.98463,-2.81467 -4.80465,-2.5 C 100.49156,105.7486 99.365716,106 98.790404,106 c -0.665576,0 -0.806117,1.50027 -0.386415,4.12495 0.602971,3.77077 0.489271,4.0804 -1.324244,3.60615 -1.091118,-0.28533 -2.178035,-0.004 -2.415373,0.62506 C 94.427035,114.98527 93.918849,114.6 93.53507,113.5 91.635535,108.05549 90.667184,106.76656 85.293745,102.5303 L 79.5,97.96269 l -1.860272,2.26562 c -1.023149,1.24609 -3.210261,4.96698 -4.860248,8.26865 -1.649987,3.30167 -4.007971,7.35304 -5.239963,9.00304 -3.584706,4.80098 -5.007488,12.05647 -3.756697,19.15733 C 64.871199,142.83616 68.591708,152 70.011925,152 c 0.43542,0 1.710695,1.4515 2.833945,3.22555 2.490164,3.93294 1.618628,4.73757 -5.154887,4.75914 -3.419892,0.0109 -4.600154,-0.32264 -4.085955,-1.15463 0.486179,-0.78665 0.177903,-0.96074 -0.940983,-0.53138 C 61.449157,158.76487 61,158.38993 61,156.9096 c 0,-1.1152 -0.430347,-1.76167 -0.956326,-1.43659 -0.525979,0.32507 -0.702834,1.25163 -0.393011,2.05902 0.738637,1.92485 -2.019134,1.93384 -3.614308,0.0118 C 54.761924,156.00821 55.527523,153.58996 57,154.5 c 0.473992,0.29294 1.103787,0.14109 1.399545,-0.33746 0.295758,-0.47855 -0.573148,-1.37624 -1.930902,-1.99487 C 55.028893,151.51167 54,150.20037 54,149.02144 54,147.90965 53.659257,147 53.242794,147 c -0.416463,0 -0.590158,-2.10036 -0.385988,-4.66746 0.280799,-3.53059 -0.669208,-7.78406 -3.900293,-17.4628 l -4.27151,-12.79536 2.477505,-3.78719 c 1.362628,-2.08295 2.766013,-4.56592 3.118634,-5.5177 0.354394,-0.95656 -0.969771,-6.406264 -2.960795,-12.185373 L 43.718426,80.129245 40.03288,80.18011 c -5.241216,0.07233 -9.918403,-2.661879 -11.652344,-6.811786 -1.293345,-3.09541 -1.284262,-3.854943 0.07878,-6.58722 0.847378,-1.698609 1.547578,-3.806743 1.556,-4.684742 0.01174,-1.223988 0.207732,-1.293008 0.840212,-0.295888 0.626702,0.988013 1.524026,0.620345 3.734687,-1.530247 C 38.803071,56.171842 42,52.143488 42,50.933377 c 0,-0.578276 0.38007,-0.816515 0.844599,-0.52942 0.46453,0.287095 3.169356,-0.361347 6.010727,-1.440983 C 56.153195,46.190002 56.787595,46.500078 52,50.5 49.695925,52.425 47.1394,54 46.318833,54 c -0.820568,0 -4.367853,2.761593 -7.882857,6.136874 -7.532994,7.233552 -7.992116,9.7336 -2.475898,13.481967 1.927305,1.309637 3.06223,2.409683 2.522057,2.444545 -0.540174,0.03486 0.0957,0.49453 1.413049,1.021483 1.317351,0.526953 2.481434,0.835929 2.58685,0.686614 0.62233,-0.881487 -0.85297,-14.660266 -1.525197,-14.244807 -1.76173,1.088809 -2.088747,-1.814125 -0.37993,-3.372637 1.701053,-1.551431 1.730571,-1.543979 0.475824,0.120127 -0.735753,0.975791 -1.148075,1.963823 -0.916271,2.195627 0.708643,0.708643 2.277525,-0.819155 4.076544,-3.969793 0.942153,-1.65 2.39981,-2.938307 3.239238,-2.862905 0.839429,0.0754 1.279519,-0.262097 0.977979,-0.75 C 48.128681,54.399193 48.428721,54 49.096976,54 c 0.668256,0 2.979453,-1.8 5.135994,-4 2.156541,-2.2 4.181369,-4 4.499616,-4 0.318248,0 1.971108,-1.056732 3.673023,-2.348293 C 66.220976,40.756275 71.602657,39.004956 75.25,39.471857 76.7625,39.665474 78,39.413513 78,38.911944 78,38.410375 78.654348,38 79.454107,38 c 0.799758,0 7.662258,-2.071692 15.25,-4.603759 C 102.29185,30.864173 110.975,28.348217 114,27.805228 c 18.82625,-6.366432 55.86484,-4.663363 71.51602,8.39565 1.45432,1.264517 3.17067,2.299122 3.8141,2.299122 0.64343,0 1.60823,0.998896 2.14399,2.219768 0.53576,1.220872 2.22326,2.494127 3.75,2.829455 1.52674,0.335328 2.77589,1.215974 2.77589,1.95699 0,1.506761 5.16977,4.430431 9,5.089784 1.375,0.236699 4.75,0.966115 7.5,1.620925 2.75,0.65481 5.3375,1.098879 5.75,0.986821 0.4125,-0.112059 0.75,0.272815 0.75,0.855274 0,0.582459 0.41224,0.80424 0.91608,0.492846 1.62407,-1.003727 6.09306,1.343866 7.00582,3.680204 0.48732,1.247363 1.82925,3.261617 2.98207,4.47612 1.15282,1.214502 2.09603,2.677002 2.09603,3.25 C 234,66.531184 234.525,67 235.16667,67 c 0.64166,0 0.8825,0.284167 0.53518,0.631483 -0.34732,0.347316 -0.22235,1.395949 0.2777,2.330297 0.59708,1.115661 0.43793,2.607137 -0.46363,4.344896 -0.86024,1.658112 -1.19169,4.428414 -0.88773,7.419703 0.26679,2.625492 0.6253,10.173621 0.79668,16.773621 0.28381,10.92906 0.12933,12.2008 -1.73094,14.25 -1.12341,1.2375 -2.77412,2.25 -3.66824,2.25 -0.89413,0 -2.17178,0.54609 -2.83923,1.21354 -0.66744,0.66744 -3.11994,1.915 -5.45,2.77235 -3.7509,1.38015 -4.27153,1.9574 -4.54243,5.03646 -0.59146,6.72257 -6.38099,8.17906 -8.85491,2.22765 -0.85735,-2.0625 -3.30939,-5.47214 -5.44897,-7.57698 -2.13958,-2.10483 -3.89015,-4.24233 -3.89015,-4.75 0,-0.50766 -0.5625,-0.97075 -1.25,-1.02909 -8.734,-0.7411 -10.75,-0.7048 -10.75,0.1936 0,0.56678 -0.3401,0.82031 -0.75577,0.56341 -0.41567,-0.2569 -2.41962,0.34222 -4.45321,1.33137 -2.5833,1.25654 -3.84191,1.45483 -4.17692,0.65808 -0.26373,-0.62722 -0.77832,-0.16211 -1.14354,1.03356 -0.46008,1.50621 -1.28491,2.05439 -2.68537,1.78468 -1.74951,-0.33692 -1.94346,3e-5 -1.44232,2.50574 0.31845,1.59225 0.15667,3.03915 -0.35951,3.21532 -0.51618,0.17617 -1.42186,3.80284 -2.01262,8.05926 -0.95911,6.91041 -0.86837,8.19514 0.84758,12 1.05692,2.34358 3.33018,5.58274 5.05168,7.19814 1.7215,1.6154 3.13,3.5279 3.13,4.25 0,0.7221 0.47656,1.31291 1.05902,1.31291 0.58246,0 0.73364,0.52647 0.33595,1.16994 -0.4816,0.77924 -0.18437,0.96322 0.89006,0.55093 1.1327,-0.43466 1.44751,-0.18746 1.05705,0.83006 -0.65435,1.70522 -12.82177,2.09997 -13.84208,0.44907 -0.3678,-0.59512 0.82295,-1 2.94098,-1 1.95746,0 3.55902,-0.417 3.55902,-0.92668 0,-0.50967 0.7875,-1.11503 1.75,-1.34524 1.6002,-0.38273 1.58578,-0.4893 -0.16842,-1.24494 -1.26801,-0.54621 -2.91921,-0.252 -4.87035,0.86781 -2.42518,1.39186 -3.24273,1.46709 -4.58158,0.42161 -2.54069,-1.98397 -2.86225,-2.69917 -3.55225,-7.90061 -0.66166,-4.98787 -0.87708,-5.16345 -6.0774,-4.95342 -2.75455,0.11124 -3.22694,-0.39182 -5.77376,-6.14869 C 150.20067,134.32143 148.71125,130.15 148.41642,128.5 147.84937,125.32654 146,122.58852 146,124.92244 c 0,1.06213 -0.29527,1.0774 -1.5,0.0776 -1.1621,-0.96446 -1.5,-0.97091 -1.5,-0.0286 0,0.66893 -2.25,-1.11818 -5,-3.97136 -2.75,-2.85318 -5.04768,-4.80789 -5.10596,-4.3438 -0.0583,0.46409 -0.019,2.13211 0.0872,3.70672 0.12437,1.84319 -0.19407,2.62358 -0.89404,2.19098 -0.64358,-0.39775 -1.08721,0.13863 -1.08721,1.3145 0,1.09254 -1.06391,2.82331 -2.36424,3.84615 -1.30034,1.02284 -3.10332,3.19301 -4.00663,4.82258 -0.90331,1.62958 -2.55962,4.10976 -3.68068,5.51152 -1.6042,2.00587 -2.08197,4.2073 -2.24337,10.33695 -0.18494,7.02358 0.0179,7.96904 2.06642,9.62905 1.24932,1.01241 1.92432,2.02965 1.5,2.26054 -1.65416,0.9 -12.27149,0.8172 -12.27149,-0.0958 z M 69,156 c 1.212959,-0.78387 1.069438,-0.9723 -0.75,-0.98469 C 67.0125,155.00689 66,155.45 66,156 c 0,1.25292 1.061241,1.25292 3,0 z"
       style="fill:#000000;fill-opacity:1"
       sodipodi:nodetypes="ccssccsssssscssccsscssscsscsssssssssscscssssssscssscsssssssssssssssssssssssssssssssccssssssssssssssssssssssssssssssssssssssssssssssssssssssscssccssssssccccssss" />
    <path
       style="fill:#ffffff;stroke:#000000;stroke-width:1;stroke-linecap:square;stroke-linejoin:miter;stroke-miterlimit:4;stroke-opacity:1;stroke-dasharray:none;stroke-dashoffset:0"
       d="m 207.31804,75.711475 13.21967,10.281967 -7.97377,0.209836 z"
       id="path3067-3"
       inkscape:connector-curvature="0"
       sodipodi:nodetypes="cccc" />
    <path
       style="fill:#ffffff;fill-opacity:1;fill-rule:nonzero;stroke:#000000;stroke-width:1;stroke-linecap:square;stroke-linejoin:miter;stroke-miterlimit:4;stroke-opacity:1;stroke-dasharray:none;stroke-dashoffset:0;display:inline"
       d="m 202.42612,43.921311 c 0,0 -5.2459,9.652459 -5.03607,10.491803 0.20984,0.839345 -0.41967,7.344263 0.20984,8.393443 0.62951,1.04918 5.87541,5.245902 5.87541,5.245902 l 5.03607,-1.678689 0.83934,-4.406557 -6.29508,-4.406558 z"
       id="path3091"
       inkscape:connector-curvature="0" />
    <text
       xml:space="preserve"
       style="font-size:40px;font-style:normal;font-variant:normal;font-weight:normal;font-stretch:normal;text-align:center;line-height:100%;letter-spacing:0px;word-spacing:0px;writing-mode:lr-tb;text-anchor:middle;fill:#ffffff;fill-opacity:1;stroke:none;font-family:Ubuntu;-inkscape-font-specification:Ubuntu"
       id="text3883"
       sodipodi:linespacing="100%"
       y="66.946159"
       x="126.86504"><tspan
         sodipodi:role="line"
         id="tspan3885"
         x="126.86504"
         y="66.946159"
         style="font-size:28px;line-height:100%;letter-spacing:0px;fill:#ffffff;fill-opacity:1">Stampede</tspan><tspan
         sodipodi:role="line"
         x="126.86504"
         y="88.457039"
         id="tspan3887"
         style="font-size:20px;line-height:100%;letter-spacing:0px;fill:#ffffff;fill-opacity:1">Huge text to PDF</tspan></text>
    <flowRoot
       xml:space="preserve"
       id="flowRoot3889"
       style="font-size:40px;font-style:normal;font-variant:normal;font-weight:normal;font-stretch:normal;text-align:center;line-height:125%;letter-spacing:0px;word-spacing:0px;writing-mode:lr-tb;text-anchor:middle;fill:#000000;fill-opacity:1;stroke:none;font-family:Ubuntu;-inkscape-font-specification:Ubuntu"><flowRegion
         id="flowRegion3891"><rect
           id="rect3893"
           width="332"
           height="184"
           x="-22"
           y="-265" /></flowRegion><flowPara
         id="flowPara3895"></flowPara></flowRoot>    <text
       xml:space="preserve"
       style="font-size:40px;font-style:normal;font-variant:normal;font-weight:normal;font-stretch:normal;text-align:center;line-height:125%;letter-spacing:0px;word-spacing:0px;writing-mode:lr-tb;text-anchor:middle;fill:#000000;fill-opacity:1;stroke:none;font-family:Ubuntu;-inkscape-font-specification:Ubuntu"
       x="290.59583"
       y="102.12491"
       id="text3907"
       sodipodi:linespacing="125%"><tspan
         sodipodi:role="line"
         id="tspan3909"
         x="290.59583"
         y="102.12491" /></text>
    <flowRoot
       xml:space="preserve"
       id="flowRoot3911"
       style="font-size:40px;font-style:normal;font-variant:normal;font-weight:normal;font-stretch:normal;text-align:center;line-height:125%;letter-spacing:0px;word-spacing:0px;writing-mode:lr-tb;text-anchor:middle;fill:#000000;fill-opacity:1;stroke:none;font-family:Ubuntu;-inkscape-font-specification:Ubuntu"><flowRegion
         id="flowRegion3913"><rect
           id="rect3915"
           width="244.4221"
           height="200.08615"
           x="10.337401"
           y="-12.964824" /></flowRegion><flowPara
         id="flowPara3917"></flowPara></flowRoot>  </g>
  <g
     inkscape:groupmode="layer"
     id="layer3"
     inkscape:label="レイヤー#1"
     style="display:inline"
     transform="translate(0,-43)">
    <path
       inkscape:connector-curvature="0"
       id="path3064-6"
       d="m 82.576492,179.12577 c 0,-1.39325 3.39514,-2.49407 3.81426,-1.23672 0.19382,0.58148 0.81305,1.05723 1.37606,1.05723 0.56301,0 0.77579,-0.64593 0.47285,-1.43539 -0.30295,-0.78947 -0.0136,-1.65394 0.64301,-1.92105 0.6566,-0.26712 -0.0733,-0.52119 -1.62192,-0.56461 -1.54866,-0.0434 -3.68616,0.38688 -4.75,0.95623 -1.33333,0.71358 -1.93426,0.71358 -1.93426,0 0,-0.56935 0.45,-1.03518 1,-1.03518 1.25631,0 1.3122,-3.27848 0.0776,-4.55 -0.56533,-0.58223 -0.34025,-2.49851 0.58142,-4.95 2.63065,-6.99706 2.7705,-8.5 0.79093,-8.5 -0.98078,0 -1.49537,-0.28788 -1.14352,-0.63972 0.35185,-0.35185 -0.79679,-1.36435 -2.55252,-2.25 -2.69312,-1.3585 -3.23356,-2.23571 -3.45647,-5.61028 -0.14532,-2.2 0.0223,-4.675 0.37254,-5.5 0.35021,-0.825 0.70814,-1.95 0.79538,-2.5 0.60671,-3.82465 3.12741,-10.5 3.96495,-10.5 0.5585,0 -0.49151,-1.3764 -2.33335,-3.05866 -1.88625,-1.72282 -3.98463,-2.81467 -4.80465,-2.5 -0.80075,0.30726 -1.926594,0.55866 -2.501906,0.55866 -0.665576,0 -0.806117,1.50027 -0.386415,4.12495 0.602971,3.77077 0.489271,4.0804 -1.324244,3.60615 -1.091118,-0.28533 -2.178035,-0.004 -2.415373,0.62506 -0.237337,0.62911 -0.745523,0.24384 -1.129302,-0.85616 -1.899535,-5.44451 -2.867886,-6.73344 -8.241325,-10.9697 l -5.793745,-4.56761 -1.860272,2.26562 c -1.023149,1.24609 -3.210261,4.96698 -4.860248,8.26865 -1.649987,3.30167 -4.007971,7.35304 -5.239963,9.00304 -3.584706,4.80098 -5.007488,12.05647 -3.756697,19.15733 1.088379,6.17883 4.808888,15.34267 6.229105,15.34267 0.43542,0 1.710695,1.4515 2.833945,3.22555 2.490164,3.93294 1.618628,4.73757 -5.154887,4.75914 -3.419892,0.0109 -4.600154,-0.32264 -4.085955,-1.15463 0.486179,-0.78665 0.177903,-0.96074 -0.940983,-0.53138 -1.214888,0.46619 -1.664045,0.0912 -1.664045,-1.38908 0,-1.1152 -0.430347,-1.76167 -0.956326,-1.43659 -0.525979,0.32507 -0.702834,1.25163 -0.393011,2.05902 0.738637,1.92485 -2.019134,1.93384 -3.614308,0.0118 -1.274431,-1.53562 -0.508832,-3.95387 0.963645,-3.04383 0.473992,0.29294 1.103787,0.14109 1.399545,-0.33746 0.295758,-0.47855 -0.573148,-1.37624 -1.930902,-1.99487 -1.43975,-0.656 -2.468643,-1.9673 -2.468643,-3.14623 0,-1.11179 -0.340743,-2.02144 -0.757206,-2.02144 -0.416463,0 -0.590158,-2.10036 -0.385988,-4.66746 0.280799,-3.53059 -0.669208,-7.78406 -3.900293,-17.4628 l -4.27151,-12.79536 2.477505,-3.78719 c 1.362628,-2.08295 2.766013,-4.56592 3.118634,-5.5177 0.354394,-0.95656 -0.969771,-6.40626 -2.960795,-12.18537 l -3.601921,-10.454876 -3.685546,0.05087 c -5.2412164,0.07233 -9.9184034,-2.661879 -11.65234439,-6.811786 -1.293345,-3.09541 -1.284262,-3.854943 0.07878,-6.58722 0.847378,-1.698609 1.547578,-3.806743 1.556,-4.684742 0.01174,-1.223988 0.207732,-1.293008 0.840212,-0.295888 0.626702,0.988013 1.524026,0.620345 3.734687,-1.530247 4.2128564,-4.098385 7.4097854,-8.126739 7.4097854,-9.33685 0,-0.578276 0.38007,-0.816515 0.844599,-0.52942 0.46453,0.287095 3.169356,-0.361347 6.010727,-1.440983 7.297869,-2.772972 7.932269,-2.462896 3.144674,1.537026 -2.304075,1.925 -4.8606,3.5 -5.681167,3.5 -0.820568,0 -4.367853,2.761593 -7.882857,6.136874 -7.5329944,7.233552 -7.9921164,9.7336 -2.4758984,13.481967 1.9273054,1.309637 3.0622304,2.409683 2.5220574,2.444545 -0.540174,0.03486 0.0957,0.49453 1.413049,1.021483 1.317351,0.526953 2.481434,0.835929 2.58685,0.686614 0.62233,-0.881487 -0.85297,-14.660266 -1.525197,-14.244807 -1.76173,1.088809 -2.088747,-1.814125 -0.37993,-3.372637 1.701053,-1.551431 1.730571,-1.543979 0.475824,0.120127 -0.735753,0.975791 -1.148075,1.963823 -0.916271,2.195627 0.708643,0.708643 2.277525,-0.819155 4.076544,-3.969793 0.942153,-1.65 2.39981,-2.938307 3.239238,-2.862905 0.839429,0.0754 1.279519,-0.262097 0.977979,-0.75 -0.30154,-0.487902 -0.0015,-0.887095 0.666755,-0.887095 0.668256,0 2.979453,-1.8 5.135994,-4 2.156541,-2.2 4.181369,-4 4.499616,-4 0.318248,0 1.971108,-1.056732 3.673023,-2.348293 3.815367,-2.895432 9.197048,-4.646751 12.844391,-4.17985 1.5125,0.193617 2.75,-0.05834 2.75,-0.559913 0,-0.501569 0.654348,-0.911944 1.454107,-0.911944 0.799758,0 7.662258,-2.071692 15.25,-4.60376 7.587743,-2.532068 16.270893,-5.048024 19.295893,-5.591013 18.826248,-6.366432 55.864838,-4.663363 71.516018,8.395651 1.45432,1.264517 3.17067,2.299122 3.8141,2.299122 0.64343,0 1.60823,0.998896 2.14399,2.219768 0.53576,1.220872 2.22326,2.494127 3.75,2.829455 1.52674,0.335328 2.77589,1.215974 2.77589,1.95699 0,1.506761 5.16977,4.430431 9,5.089784 1.375,0.236699 4.75,0.966115 7.5,1.620925 2.75,0.65481 5.3375,1.098879 5.75,0.986821 0.4125,-0.112059 0.75,0.272815 0.75,0.855274 0,0.582459 0.41224,0.80424 0.91608,0.492846 1.62407,-1.003727 6.09306,1.343866 7.00582,3.680204 0.48732,1.247363 1.82925,3.261617 2.98207,4.47612 1.15282,1.214502 2.09603,2.677002 2.09603,3.25 0,0.572997 0.525,1.041813 1.16667,1.041813 0.64166,0 0.8825,0.284167 0.53518,0.631483 -0.34732,0.347316 -0.22235,1.395949 0.2777,2.330297 0.59708,1.115661 0.43793,2.607137 -0.46363,4.344896 -0.86024,1.658112 -1.19169,4.428414 -0.88773,7.4197 0.26679,2.62549 0.6253,10.17362 0.79668,16.77362 0.28381,10.92906 0.12933,12.2008 -1.73094,14.25 -1.12341,1.2375 -2.77412,2.25 -3.66824,2.25 -0.89413,0 -2.17178,0.54609 -2.83923,1.21354 -0.66744,0.66744 -3.11994,1.915 -5.45,2.77235 -3.7509,1.38015 -4.27153,1.9574 -4.54243,5.03646 -0.59146,6.72257 -6.38099,8.17906 -8.85491,2.22765 -0.85735,-2.0625 -3.30939,-5.47214 -5.44897,-7.57698 -2.13958,-2.10483 -3.89015,-4.24233 -3.89015,-4.75 0,-0.50766 -0.5625,-0.97075 -1.25,-1.02909 -8.734,-0.7411 -10.75,-0.7048 -10.75,0.1936 0,0.56678 -0.3401,0.82031 -0.75577,0.56341 -0.41567,-0.2569 -2.41962,0.34222 -4.45321,1.33137 -2.5833,1.25654 -3.84191,1.45483 -4.17692,0.65808 -0.26373,-0.62722 -0.77832,-0.16211 -1.14354,1.03356 -0.46008,1.50621 -1.28491,2.05439 -2.68537,1.78468 -1.74951,-0.33692 -1.94346,3e-5 -1.44232,2.50574 0.31845,1.59225 0.15667,3.03915 -0.35951,3.21532 -0.51618,0.17618 -1.42186,3.80285 -2.01262,8.05927 -0.95911,6.91041 -0.86837,8.19514 0.84758,12 1.05692,2.34358 3.33018,5.58274 5.05168,7.19814 1.7215,1.6154 3.13,3.52789 3.13,4.24999 0,0.7221 0.47656,1.31291 1.05902,1.31291 0.58246,0 0.73364,0.52647 0.33595,1.16994 -0.4816,0.77924 -0.18437,0.96322 0.89006,0.55093 1.1327,-0.43466 1.44751,-0.18746 1.05705,0.83006 -0.65435,1.70522 -12.82177,2.09997 -13.84208,0.44907 -0.3678,-0.59512 0.82295,-1 2.94098,-1 1.95746,0 3.55902,-0.417 3.55902,-0.92668 0,-0.50967 0.7875,-1.11503 1.75,-1.34524 1.6002,-0.38273 1.58578,-0.4893 -0.16842,-1.24494 -1.26801,-0.54621 -2.91921,-0.252 -4.87035,0.86781 -2.42518,1.39186 -3.24273,1.46709 -4.58158,0.42161 -2.54069,-1.98397 -2.86225,-2.69917 -3.55225,-7.90061 -0.66166,-4.98787 -0.87708,-5.16345 -6.0774,-4.95342 -2.75455,0.11124 -3.22694,-0.39182 -5.77376,-6.14869 -1.52557,-3.44841 -3.01499,-7.61984 -3.30982,-9.26984 -0.56705,-3.17346 -2.41642,-5.91148 -2.41642,-3.57756 0,1.06213 -0.29527,1.0774 -1.5,0.0776 -1.1621,-0.96446 -1.5,-0.97091 -1.5,-0.0286 0,0.66893 -2.25,-1.11818 -5,-3.97136 -2.75,-2.85318 -5.04768,-4.80789 -5.10596,-4.3438 -0.0583,0.46409 -0.019,2.13211 0.0872,3.70672 0.12437,1.84319 -0.19407,2.62358 -0.89404,2.19098 -0.64358,-0.39775 -1.08721,0.13863 -1.08721,1.3145 0,1.09254 -1.06391,2.82331 -2.36424,3.84615 -1.300338,1.02284 -3.103318,3.19301 -4.006628,4.82258 -0.90331,1.62958 -2.55962,4.10976 -3.68068,5.51152 -1.6042,2.00587 -2.08197,4.2073 -2.24337,10.33695 -0.18494,7.02358 0.0179,7.96904 2.06642,9.62905 1.24932,1.01241 1.92432,2.02965 1.5,2.26054 -1.65416,0.9 -12.27149,0.8172 -12.27149,-0.0958 z m -41,-4.17949 c 1.212959,-0.78387 1.069438,-0.9723 -0.75,-0.98469 -1.2375,-0.008 -2.25,0.43469 -2.25,0.98469 0,1.25292 1.061241,1.25292 3,0 z"
       style="fill:#000000;fill-opacity:1;display:inline"
       sodipodi:nodetypes="ccssccsssssscssccsscssscsscsssssssssscscssssssscssscsssssssssssssssssssssssssssssssccssssssssssssssssssssssssssssssssssssssssssssssssssssssscssccssssssccccssss" />
    <path
       style="fill:#ffffff;stroke:#000000;stroke-width:1;stroke-linecap:square;stroke-linejoin:miter;stroke-miterlimit:4;stroke-opacity:1;stroke-dasharray:none;stroke-dashoffset:0;display:inline"
       d="m 179.89453,94.657754 13.21967,10.281966 -7.97377,0.20984 z"
       id="path3067-3-7"
       inkscape:connector-curvature="0"
       sodipodi:nodetypes="cccc" />
    <path
       style="fill:#ffffff;fill-opacity:1;fill-rule:nonzero;stroke:#000000;stroke-width:1;stroke-linecap:square;stroke-linejoin:miter;stroke-miterlimit:4;stroke-opacity:1;stroke-dasharray:none;stroke-dashoffset:0;display:inline"
       d="m 175.00261,62.86759 c 0,0 -5.2459,9.652459 -5.03607,10.491803 0.20984,0.839345 -0.41967,7.344263 0.20984,8.393443 0.62951,1.04918 5.87541,5.245902 5.87541,5.245902 l 5.03607,-1.678689 0.83934,-4.406557 -6.29508,-4.406558 z"
       id="path3091-5"
       inkscape:connector-curvature="0" />
    <text
       xml:space="preserve"
       style="font-size:40px;font-style:normal;font-variant:normal;font-weight:normal;font-stretch:normal;text-align:center;line-height:100%;letter-spacing:0px;word-spacing:0px;writing-mode:lr-tb;text-anchor:middle;fill:#ffffff;fill-opacity:1;stroke:none;display:inline;font-family:Ubuntu;-inkscape-font-specification:Ubuntu"
       id="text3883-3"
       sodipodi:linespacing="100%"
       y="85.892441"
       x="99.441536"><tspan
         sodipodi:role="line"
         id="tspan3885-5"
         x="99.441536"
         y="85.892441"
         style="font-size:28px;line-height:100%;letter-spacing:0px;fill:#ffffff;fill-opacity:1">Stampede</tspan><tspan
         sodipodi:role="line"
         x="99.441536"
         y="107.40332"
         id="tspan3887-6"
         style="font-size:20px;line-height:100%;letter-spacing:0px;fill:#ffffff;fill-opacity:1">Huge text to PDF</tspan></text>
  </g>
</svg>
