<?xml version="1.0" encoding="UTF-8" standalone="no"?>
<!-- Created with Inkscape (http://www.inkscape.org/) -->

<svg
   xmlns:dc="http://purl.org/dc/elements/1.1/"
   xmlns:cc="http://creativecommons.org/ns#"
   xmlns:rdf="http://www.w3.org/1999/02/22-rdf-syntax-ns#"
   xmlns:svg="http://www.w3.org/2000/svg"
   xmlns="http://www.w3.org/2000/svg"
   xmlns:xlink="http://www.w3.org/1999/xlink"
   xmlns:sodipodi="http://sodipodi.sourceforge.net/DTD/sodipodi-0.dtd"
   xmlns:inkscape="http://www.inkscape.org/namespaces/inkscape"
   width="209"
   height="137"
   id="svg2"
   version="1.1"
   inkscape:version="0.48.4 r9939"
   sodipodi:docname="plogo.svg">
  <defs
     id="defs4" />
  <sodipodi:namedview
     id="base"
     pagecolor="#ffffff"
     bordercolor="#666666"
     borderopacity="1.0"
     inkscape:pageopacity="0.0"
     inkscape:pageshadow="2"
     inkscape:zoom="4.353125"
     inkscape:cx="123.2448"
     inkscape:cy="90"
     inkscape:document-units="px"
     inkscape:current-layer="layer3"
     showgrid="false"
     inkscape:window-width="1920"
     inkscape:window-height="1148"
     inkscape:window-x="0"
     inkscape:window-y="0"
     inkscape:window-maximized="1"
     showguides="true"
     inkscape:guide-bbox="true" />
  <metadata
     id="metadata7">
    <rdf:RDF>
      <cc:Work
         rdf:about="">
        <dc:format>image/svg+xml</dc:format>
        <dc:type
           rdf:resource="http://purl.org/dc/dcmitype/StillImage" />
        <dc:title></dc:title>
      </cc:Work>
    </rdf:RDF>
  </metadata>
  <g
     inkscape:groupmode="layer"
     id="layer2"
     inkscape:label="レイヤー"
     style="display:none"
     sodipodi:insensitive="true"
     transform="translate(0,-43)">
    <image
       y="0"
       x="0"
       id="image3012"
       xlink:href="file:///home/ken/%E3%83%87%E3%82%B9%E3%82%AF%E3%83%88%E3%83%83%E3%83%97/A_bison_in_Caprock_Canyon_State_Park.jpg"
       height="180"
       width="320" />
  </g>
  <g
     style="display:none"
     inkscape:label="レイヤー コピー"
     id="g3060"
     inkscape:groupmode="layer"
     transform="translate(0,-43)">
    <path
       inkscape:connector-curvature="0"
       id="path3064"
       d="m 110,160.17949 c 0,-1.39325 3.39514,-2.49407 3.81426,-1.23672 0.19382,0.58148 0.81305,1.05723 1.37606,1.05723 0.56301,0 0.77579,-0.64593 0.47285,-1.43539 -0.30295,-0.78947 -0.0136,-1.65394 0.64301,-1.92105 0.6566,-0.26712 -0.0733,-0.52119 -1.62192,-0.56461 -1.54866,-0.0434 -3.68616,0.38688 -4.75,0.95623 -1.33333,0.71358 -1.93426,0.71358 -1.93426,0 0,-0.56935 0.45,-1.03518 1,-1.03518 1.25631,0 1.3122,-3.27848 0.0776,-4.55 -0.56533,-0.58223 -0.34025,-2.49851 0.58142,-4.95 2.63065,-6.99706 2.7705,-8.5 0.79093,-8.5 -0.98078,0 -1.49537,-0.28788 -1.14352,-0.63972 0.35185,-0.35185 -0.79679,-1.36435 -2.55252,-2.25 -2.69312,-1.3585 -3.23356,-2.23571 -3.45647,-5.61028 -0.14532,-2.2 0.0223,-4.675 0.37254,-5.5 0.35021,-0.825 0.70814,-1.95 0.79538,-2.5 0.60671,-3.82465 3.12741,-10.5 3.96495,-10.5 0.5585,0 -0.49151,-1.3764 -2.33335,-3.05866 -1.88625,-1.72282 -3.98463,-2.81467 -4.80465,-2.5 C 100.49156,105.7486 99.365716,106 98.790404,106 c -0.665576,0 -0.806117,1.50027 -0.386415,4.12495 0.602971,3.77077 0.489271,4.0804 -1.324244,3.60615 -1.091118,-0.28533 -2.178035,-0.004 -2.415373,0.62506 C 94.427035,114.98527 93.918849,114.6 93.53507,113.5 91.635535,108.05549 90.667184,106.76656 85.293745,102.5303 L 79.5,97.96269 l -1.860272,2.26562 c -1.023149,1.24609 -3.210261,4.96698 -4.860248,8.26865 -1.649987,3.30167 -4.007971,7.35304 -5.239963,9.00304 -3.584706,4.80098 -5.007488,12.05647 -3.756697,19.15733 C 64.871199,142.83616 68.591708,152 70.011925,152 c 0.43542,0 1.710695,1.4515 2.833945,3.22555 2.490164,3.93294 1.618628,4.73757 -5.154887,4.75914 -3.419892,0.0109 -4.600154,-0.32264 -4.085955,-1.15463 0.486179,-0.78665 0.177903,-0.96074 -0.940983,-0.53138 C 61.449157,158.76487 61,158.38993 61,156.9096 c 0,-1.1152 -0.430347,-1.76167 -0.956326,-1.43659 -0.525979,0.32507 -0.702834,1.25163 -0.393011,2.05902 0.738637,1.92485 -2.019134,1.93384 -3.614308,0.0118 C 54.761924,156.00821 55.527523,153.58996 57,154.5 c 0.473992,0.29294 1.103787,0.14109 1.399545,-0.33746 0.295758,-0.47855 -0.573148,-1.37624 -1.930902,-1.99487 C 55.028893,151.51167 54,150.20037 54,149.02144 54,147.90965 53.659257,147 53.242794,147 c -0.416463,0 -0.590158,-2.10036 -0.385988,-4.66746 0.280799,-3.53059 -0.669208,-7.78406 -3.900293,-17.4628 l -4.27151,-12.79536 2.477505,-3.78719 c 1.362628,-2.08295 2.766013,-4.56592 3.118634,-5.5177 0.354394,-0.95656 -0.969771,-6.406264 -2.960795,-12.185373 L 43.718426,80.129245 40.03288,80.18011 c -5.241216,0.07233 -9.918403,-2.661879 -11.652344,-6.811786 -1.293345,-3.09541 -1.284262,-3.854943 0.07878,-6.58722 0.847378,-1.698609 1.547578,-3.806743 1.556,-4.684742 0.01174,-1.223988 0.207732,-1.293008 0.840212,-0.295888 0.626702,0.988013 1.524026,0.620345 3.734687,-1.530247 C 38.803071,56.171842 42,52.143488 42,50.933377 c 0,-0.578276 0.38007,-0.816515 0.844599,-0.52942 0.46453,0.287095 3.169356,-0.361347 6.010727,-1.440983 C 56.153195,46.190002 56.787595,46.500078 52,50.5 49.695925,52.425 47.1394,54 46.318833,54 c -0.820568,0 -4.367853,2.761593 -7.882857,6.136874 -7.532994,7.233552 -7.992116,9.7336 -2.475898,13.481967 1.927305,1.309637 3.06223,2.409683 2.522057,2.444545 -0.540174,0.03486 0.0957,0.49453 1.413049,1.021483 1.317351,0.526953 2.481434,0.835929 2.58685,0.686614 0.62233,-0.881487 -0.85297,-14.660266 -1.525197,-14.244807 -1.76173,1.088809 -2.088747,-1.814125 -0.37993,-3.372637 1.701053,-1.551431 1.730571,-1.543979 0.475824,0.120127 -0.735753,0.975791 -1.148075,1.963823 -0.916271,2.195627 0.708643,0.708643 2.277525,-0.819155 4.076544,-3.969793 0.942153,-1.65 2.39981,-2.938307 3.239238,-2.862905 0.839429,0.0754 1.279519,-0.262097 0.977979,-0.75 C 48.128681,54.399193 48.428721,54 49.096976,54 c 0.668256,0 2.979453,-1.8 5.135994,-4 2.156541,-2.2 4.181369,-4 4.499616,-4 0.318248,0 1.971108,-1.056732 3.673023,-2.348293 C 66.220976,40.756275 71.602657,39.004956 75.25,39.471857 76.7625,39.665474 78,39.413513 78,38.911944 78,38.410375 78.654348,38 79.454107,38 c 0.799758,0 7.662258,-2.071692 15.25,-4.603759 C 102.29185,30.864173 110.975,28.348217 114,27.805228 c 18.82625,-6.366432 55.86484,-4.663363 71.51602,8.39565 1.45432,1.264517 3.17067,2.299122 3.8141,2.299122 0.64343,0 1.60823,0.998896 2.14399,2.219768 0.53576,1.220872 2.22326,2.494127 3.75,2.829455 1.52674,0.335328 2.77589,1.215974 2.77589,1.95699 0,1.506761 5.16977,4.430431 9,5.089784 1.375,0.236699 4.75,0.966115 7.5,1.620925 2.75,0.65481 5.3375,1.098879 5.75,0.986821 0.4125,-0.112059 0.75,0.272815 0.75,0.855274 0,0.582459 0.41224,0.80424 0.91608,0.492846 1.62407,-1.003727 6.09306,1.343866 7.00582,3.680204 0.48732,1.247363 1.82925,3.261617 2.98207,4.47612 1.15282,1.214502 2.09603,2.677002 2.09603,3.25 C 234,66.531184 234.525,67 235.16667,67 c 0.64166,0 0.8825,0.284167 0.53518,0.631483 -0.34732,0.347316 -0.22235,1.395949 0.2777,2.330297 0.59708,1.115661 0.43793,2.607137 -0.46363,4.344896 -0.86024,1.658112 -1.19169,4.428414 -0.88773,7.419703 0.26679,2.625492 0.6253,10.173621 0.79668,16.773621 0.28381,10.92906 0.12933,12.2008 -1.73094,14.25 -1.12341,1.2375 -2.77412,2.25 -3.66824,2.25 -0.89413,0 -2.17178,0.54609 -2.83923,1.21354 -0.66744,0.66744 -3.11994,1.915 -5.45,2.77235 -3.7509,1.38015 -4.27153,1.9574 -4.54243,5.03646 -0.59146,6.72257 -6.38099,8.17906 -8.85491,2.22765 -0.85735,-2.0625 -3.30939,-5.47214 -5.44897,-7.57698 -2.13958,-2.10483 -3.89015,-4.24233 -3.89015,-4.75 0,-0.50766 -0.5625,-0.97075 -1.25,-1.02909 -8.734,-0.7411 -10.75,-0.7048 -10.75,0.1936 0,0.56678 -0.3401,0.82031 -0.75577,0.56341 -0.41567,-0.2569 -2.41962,0.34222 -4.45321,1.33137 -2.5833,1.25654 -3.84191,1.45483 -4.17692,0.65808 -0.26373,-0.62722 -0.77832,-0.16211 -1.14354,1.03356 -0.46008,1.50621 -1.28491,2.05439 -2.68537,1.78468 -1.74951,-0.33692 -1.94346,3e-5 -1.44232,2.50574 0.31845,1.59225 0.15667,3.03915 -0.35951,3.21532 -0.51618,0.17617 -1.42186,3.80284 -2.01262,8.05926 -0.95911,6.91041 -0.86837,8.19514 0.84758,12 1.05692,2.34358 3.33018,5.58274 5.05168,7.19814 1.7215,1.6154 3.13,3.5279 3.13,4.25 0,0.7221 0.47656,1.31291 1.05902,1.31291 0.58246,0 0.73364,0.52647 0.33595,1.16994 -0.4816,0.77924 -0.18437,0.96322 0.89006,0.55093 1.1327,-0.43466 1.44751,-0.18746 1.05705,0.83006 -0.65435,1.70522 -12.82177,2.09997 -13.84208,0.44907 -0.3678,-0.59512 0.82295,-1 2.94098,-1 1.95746,0 3.55902,-0.417 3.55902,-0.92668 0,-0.50967 0.7875,-1.11503 1.75,-1.34524 1.6002,-0.38273 1.58578,-0.4893 -0.16842,-1.24494 -1.26801,-0.54621 -2.91921,-0.252 -4.87035,0.86781 -2.42518,1.39186 -3.24273,1.46709 -4.58158,0.42161 -2.54069,-1.98397 -2.86225,-2.69917 -3.55225,-7.90061 -0.66166,-4.98787 -0.87708,-5.16345 -6.0774,-4.95342 -2.75455,0.11124 -3.22694,-0.39182 -5.77376,-6.14869 C 150.20067,134.32143 148.71125,130.15 148.41642,128.5 147.84937,125.32654 146,122.58852 146,124.92244 c 0,1.06213 -0.29527,1.0774 -1.5,0.0776 -1.1621,-0.96446 -1.5,-0.97091 -1.5,-0.0286 0,0.66893 -2.25,-1.11818 -5,-3.97136 -2.75,-2.85318 -5.04768,-4.80789 -5.10596,-4.3438 -0.0583,0.46409 -0.019,2.13211 0.0872,3.70672 0.12437,1.84319 -0.19407,2.62358 -0.89404,2.19098 -0.64358,-0.39775 -1.08721,0.13863 -1.08721,1.3145 0,1.09254 -1.06391,2.82331 -2.36424,3.84615 -1.30034,1.02284 -3.10332,3.19301 -4.00663,4.82258 -0.90331,1.62958 -2.55962,4.10976 -3.68068,5.51152 -1.6042,2.00587 -2.08197,4.2073 -2.24337,10.33695 -0.18494,7.02358 0.0179,7.96904 2.06642,9.62905 1.24932,1.01241 1.92432,2.02965 1.5,2.26054 -1.65416,0.9 -12.27149,0.8172 -12.27149,-0.0958 z M 69,156 c 1.212959,-0.78387 1.069438,-0.9723 -0.75,-0.98469 C 67.0125,155.00689 66,155.45 66,156 c 0,1.25292 1.061241,1.25292 3,0 z"
       style="fill:#000000;fill-opacity:1"
       sodipodi:nodetypes="ccssccsssssscssccsscssscsscsssssssssscscssssssscssscsssssssssssssssssssssssssssssssccssssssssssssssssssssssssssssssssssssssssssssssssssssssscssccssssssccccssss" />
    <path
       style="fill:#ffffff;stroke:#000000;stroke-width:1;stroke-linecap:square;stroke-linejoin:miter;stroke-miterlimit:4;stroke-opacity:1;stroke-dasharray:none;stroke-dashoffset:0"
       d="m 207.31804,75.711475 13.21967,10.281967 -7.97377,0.209836 z"
       id="path3067-3"
       inkscape:connector-curvature="0"
       sodipodi:nodetypes="cccc" />
    <path
       style="fill:#ffffff;fill-opacity:1;fill-rule:nonzero;stroke:#000000;stroke-width:1;stroke-linecap:square;stroke-linejoin:miter;stroke-miterlimit:4;stroke-opacity:1;stroke-dasharray:none;stroke-dashoffset:0;display:inline"
       d="m 202.42612,43.921311 c 0,0 -5.2459,9.652459 -5.03607,10.491803 0.20984,0.839345 -0.41967,7.344263 0.20984,8.393443 0.62951,1.04918 5.87541,5.245902 5.87541,5.245902 l 5.03607,-1.678689 0.83934,-4.406557 -6.29508,-4.406558 z"
       id="path3091"
       inkscape:connector-curvature="0" />
    <text
       xml:space="preserve"
       style="font-size:40px;font-style:normal;font-variant:normal;font-weight:normal;font-stretch:normal;text-align:center;line-height:100%;letter-spacing:0px;word-spacing:0px;writing-mode:lr-tb;text-anchor:middle;fill:#ffffff;fill-opacity:1;stroke:none;font-family:Ubuntu;-inkscape-font-specification:Ubuntu"
       id="text3883"
       sodipodi:linespacing="100%"
       y="66.946159"
       x="126.86504"><tspan
         sodipodi:role="line"
         id="tspan3885"
         x="126.86504"
         y="66.946159"
         style="font-size:28px;line-height:100%;letter-spacing:0px;fill:#ffffff;fill-opacity:1">Stampede</tspan><tspan
         sodipodi:role="line"
         x="126.86504"
         y="88.457039"
         id="tspan3887"
         style="font-size:20px;line-height:100%;letter-spacing:0px;fill:#ffffff;fill-opacity:1">Huge text to PDF</tspan></text>
    <flowRoot
       xml:space="preserve"
       id="flowRoot3889"
       style="font-size:40px;font-style:normal;font-variant:normal;font-weight:normal;font-stretch:normal;text-align:center;line-height:125%;letter-spacing:0px;word-spacing:0px;writing-mode:lr-tb;text-anchor:middle;fill:#000000;fill-opacity:1;stroke:none;font-family:Ubuntu;-inkscape-font-specification:Ubuntu"><flowRegion
         id="flowRegion3891"><rect
           id="rect3893"
           width="332"
           height="184"
           x="-22"
           y="-265" /></flowRegion><flowPara
         id="flowPara3895"></flowPara></flowRoot>    <text
       xml:space="preserve"
       style="font-size:40px;font-style:normal;font-variant:normal;font-weight:normal;font-stretch:normal;text-align:center;line-height:125%;letter-spacing:0px;word-spacing:0px;writing-mode:lr-tb;text-anchor:middle;fill:#000000;fill-opacity:1;stroke:none;font-family:Ubuntu;-inkscape-font-specification:Ubuntu"
       x="290.59583"
       y="102.12491"
       id="text3907"
       sodipodi:linespacing="125%"><tspan
         sodipodi:role="line"
         id="tspan3909"
         x="290.59583"
         y="102.12491" /></text>
    <flowRoot
       xml:space="preserve"
       id="flowRoot3911"
       style="font-size:40px;font-style:normal;font-variant:normal;font-weight:normal;font-stretch:normal;text-align:center;line-height:125%;letter-spacing:0px;word-spacing:0px;writing-mode:lr-tb;text-anchor:middle;fill:#000000;fill-opacity:1;stroke:none;font-family:Ubuntu;-inkscape-font-specification:Ubuntu"><flowRegion
         id="flowRegion3913"><rect
           id="rect3915"
           width="244.4221"
           height="200.08615"
           x="10.337401"
           y="-12.964824" /></flowRegion><flowPara
         id="flowPara3917"></flowPara></flowRoot>  </g>
  <g
     inkscape:groupmode="layer"
     id="layer3"
     inkscape:label="レイヤー#1"
     style="display:inline"
     transform="translate(0,-43)">
    <path
       inkscape:connector-curvature="0"
       id="path3064-6"
       d="m 82.576492,179.12577 c 0,-1.39325 3.39514,-2.49407 3.81426,-1.23672 0.19382,0.58148 0.81305,1.05723 1.37606,1.05723 0.56301,0 0.77579,-0.64593 0.47285,-1.43539 -0.30295,-0.78947 -0.0136,-1.65394 0.64301,-1.92105 0.6566,-0.26712 -0.0733,-0.52119 -1.62192,-0.56461 -1.54866,-0.0434 -3.68616,0.38688 -4.75,0.95623 -1.33333,0.71358 -1.93426,0.71358 -1.93426,0 0,-0.56935 0.45,-1.03518 1,-1.03518 1.25631,0 1.3122,-3.27848 0.0776,-4.55 -0.56533,-0.58223 -0.34025,-2.49851 0.58142,-4.95 2.63065,-6.99706 2.7705,-8.5 0.79093,-8.5 -0.98078,0 -1.49537,-0.28788 -1.14352,-0.63972 0.35185,-0.35185 -0.79679,-1.36435 -2.55252,-2.25 -2.69312,-1.3585 -3.23356,-2.23571 -3.45647,-5.61028 -0.14532,-2.2 0.0223,-4.675 0.37254,-5.5 0.35021,-0.825 0.70814,-1.95 0.79538,-2.5 0.60671,-3.82465 3.12741,-10.5 3.96495,-10.5 0.5585,0 -0.49151,-1.3764 -2.33335,-3.05866 -1.88625,-1.72282 -3.98463,-2.81467 -4.80465,-2.5 -0.80075,0.30726 -1.926594,0.55866 -2.501906,0.55866 -0.665576,0 -0.806117,1.50027 -0.386415,4.12495 0.602971,3.77077 0.489271,4.0804 -1.324244,3.60615 -1.091118,-0.28533 -2.178035,-0.004 -2.415373,0.62506 -0.237337,0.62911 -0.745523,0.24384 -1.129302,-0.85616 -1.899535,-5.44451 -2.867886,-6.73344 -8.241325,-10.9697 l -5.793745,-4.56761 -1.860272,2.26562 c -1.023149,1.24609 -3.210261,4.96698 -4.860248,8.26865 -1.649987,3.30167 -4.007971,7.35304 -5.239963,9.00304 -3.584706,4.80098 -5.007488,12.05647 -3.756697,19.15733 1.088379,6.17883 4.808888,15.34267 6.229105,15.34267 0.43542,0 1.710695,1.4515 2.833945,3.22555 2.490164,3.93294 1.618628,4.73757 -5.154887,4.75914 -3.419892,0.0109 -4.600154,-0.32264 -4.085955,-1.15463 0.486179,-0.78665 0.177903,-0.96074 -0.940983,-0.53138 -1.214888,0.46619 -1.664045,0.0912 -1.664045,-1.38908 0,-1.1152 -0.430347,-1.76167 -0.956326,-1.43659 -0.525979,0.32507 -0.702834,1.25163 -0.393011,2.05902 0.738637,1.92485 -2.019134,1.93384 -3.614308,0.0118 -1.274431,-1.53562 -0.508832,-3.95387 0.963645,-3.04383 0.473992,0.29294 1.103787,0.14109 1.399545,-0.33746 0.295758,-0.47855 -0.573148,-1.37624 -1.930902,-1.99487 -1.43975,-0.656 -2.468643,-1.9673 -2.468643,-3.14623 0,-1.11179 -0.340743,-2.02144 -0.757206,-2.02144 -0.416463,0 -0.590158,-2.10036 -0.385988,-4.66746 0.280799,-3.53059 -0.669208,-7.78406 -3.900293,-17.4628 l -4.27151,-12.79536 2.477505,-3.78719 c 1.362628,-2.08295 2.766013,-4.56592 3.118634,-5.5177 0.354394,-0.95656 -0.969771,-6.40626 -2.960795,-12.18537 l -3.601921,-10.454876 -3.685546,0.05087 c -5.2412164,0.07233 -9.9184034,-2.661879 -11.65234439,-6.811786 -1.293345,-3.09541 -1.284262,-3.854943 0.07878,-6.58722 0.847378,-1.698609 1.547578,-3.806743 1.556,-4.684742 0.01174,-1.223988 0.207732,-1.293008 0.840212,-0.295888 0.626702,0.988013 1.524026,0.620345 3.734687,-1.530247 4.2128564,-4.098385 7.4097854,-8.126739 7.4097854,-9.33685 0,-0.578276 0.38007,-0.816515 0.844599,-0.52942 0.46453,0.287095 3.169356,-0.361347 6.010727,-1.440983 7.297869,-2.772972 7.932269,-2.462896 3.144674,1.537026 -2.304075,1.925 -4.8606,3.5 -5.681167,3.5 -0.820568,0 -4.367853,2.761593 -7.882857,6.136874 -7.5329944,7.233552 -7.9921164,9.7336 -2.4758984,13.481967 1.9273054,1.309637 3.0622304,2.409683 2.5220574,2.444545 -0.540174,0.03486 0.0957,0.49453 1.413049,1.021483 1.317351,0.526953 2.481434,0.835929 2.58685,0.686614 0.62233,-0.881487 -0.85297,-14.660266 -1.525197,-14.244807 -1.76173,1.088809 -2.088747,-1.814125 -0.37993,-3.372637 1.701053,-1.551431 1.730571,-1.543979 0.475824,0.120127 -0.735753,0.975791 -1.148075,1.963823 -0.916271,2.195627 0.708643,0.708643 2.277525,-0.819155 4.076544,-3.969793 0.942153,-1.65 2.39981,-2.938307 3.239238,-2.862905 0.839429,0.0754 1.279519,-0.262097 0.977979,-0.75 -0.30154,-0.487902 -0.0015,-0.887095 0.666755,-0.887095 0.668256,0 2.979453,-1.8 5.135994,-4 2.156541,-2.2 4.181369,-4 4.499616,-4 0.318248,0 1.971108,-1.056732 3.673023,-2.348293 3.815367,-2.895432 9.197048,-4.646751 12.844391,-4.17985 1.5125,0.193617 2.75,-0.05834 2.75,-0.559913 0,-0.501569 0.654348,-0.911944 1.454107,-0.911944 0.799758,0 7.662258,-2.071692 15.25,-4.60376 7.587743,-2.532068 16.270893,-5.048024 19.295893,-5.591013 18.826248,-6.366432 55.864838,-4.663363 71.516018,8.395651 1.45432,1.264517 3.17067,2.299122 3.8141,2.299122 0.64343,0 1.60823,0.998896 2.14399,2.219768 0.53576,1.220872 2.22326,2.494127 3.75,2.829455 1.52674,0.335328 2.77589,1.215974 2.77589,1.95699 0,1.506761 5.16977,4.430431 9,5.089784 1.375,0.236699 4.75,0.966115 7.5,1.620925 2.75,0.65481 5.3375,1.098879 5.75,0.986821 0.4125,-0.112059 0.75,0.272815 0.75,0.855274 0,0.582459 0.41224,0.80424 0.91608,0.492846 1.62407,-1.003727 6.09306,1.343866 7.00582,3.680204 0.48732,1.247363 1.82925,3.261617 2.98207,4.47612 1.15282,1.214502 2.09603,2.677002 2.09603,3.25 0,0.572997 0.525,1.041813 1.16667,1.041813 0.64166,0 0.8825,0.284167 0.53518,0.631483 -0.34732,0.347316 -0.22235,1.395949 0.2777,2.330297 0.59708,1.115661 0.43793,2.607137 -0.46363,4.344896 -0.86024,1.658112 -1.19169,4.428414 -0.88773,7.4197 0.26679,2.62549 0.6253,10.17362 0.79668,16.77362 0.28381,10.92906 0.12933,12.2008 -1.73094,14.25 -1.12341,1.2375 -2.77412,2.25 -3.66824,2.25 -0.89413,0 -2.17178,0.54609 -2.83923,1.21354 -0.66744,0.66744 -3.11994,1.915 -5.45,2.77235 -3.7509,1.38015 -4.27153,1.9574 -4.54243,5.03646 -0.59146,6.72257 -6.38099,8.17906 -8.85491,2.22765 -0.85735,-2.0625 -3.30939,-5.47214 -5.44897,-7.57698 -2.13958,-2.10483 -3.89015,-4.24233 -3.89015,-4.75 0,-0.50766 -0.5625,-0.97075 -1.25,-1.02909 -8.734,-0.7411 -10.75,-0.7048 -10.75,0.1936 0,0.56678 -0.3401,0.82031 -0.75577,0.56341 -0.41567,-0.2569 -2.41962,0.34222 -4.45321,1.33137 -2.5833,1.25654 -3.84191,1.45483 -4.17692,0.65808 -0.26373,-0.62722 -0.77832,-0.16211 -1.14354,1.03356 -0.46008,1.50621 -1.28491,2.05439 -2.68537,1.78468 -1.74951,-0.33692 -1.94346,3e-5 -1.44232,2.50574 0.31845,1.59225 0.15667,3.03915 -0.35951,3.21532 -0.51618,0.17618 -1.42186,3.80285 -2.01262,8.05927 -0.95911,6.91041 -0.86837,8.19514 0.84758,12 1.05692,2.34358 3.33018,5.58274 5.05168,7.19814 1.7215,1.6154 3.13,3.52789 3.13,4.24999 0,0.7221 0.47656,1.31291 1.05902,1.31291 0.58246,0 0.73364,0.52647 0.33595,1.16994 -0.4816,0.77924 -0.18437,0.96322 0.89006,0.55093 1.1327,-0.43466 1.44751,-0.18746 1.05705,0.83006 -0.65435,1.70522 -12.82177,2.09997 -13.84208,0.44907 -0.3678,-0.59512 0.82295,-1 2.94098,-1 1.95746,0 3.55902,-0.417 3.55902,-0.92668 0,-0.50967 0.7875,-1.11503 1.75,-1.34524 1.6002,-0.38273 1.58578,-0.4893 -0.16842,-1.24494 -1.26801,-0.54621 -2.91921,-0.252 -4.87035,0.86781 -2.42518,1.39186 -3.24273,1.46709 -4.58158,0.42161 -2.54069,-1.98397 -2.86225,-2.69917 -3.55225,-7.90061 -0.66166,-4.98787 -0.87708,-5.16345 -6.0774,-4.95342 -2.75455,0.11124 -3.22694,-0.39182 -5.77376,-6.14869 -1.52557,-3.44841 -3.01499,-7.61984 -3.30982,-9.26984 -0.56705,-3.17346 -2.41642,-5.91148 -2.41642,-3.57756 0,1.06213 -0.29527,1.0774 -1.5,0.0776 -1.1621,-0.96446 -1.5,-0.97091 -1.5,-0.0286 0,0.66893 -2.25,-1.11818 -5,-3.97136 -2.75,-2.85318 -5.04768,-4.80789 -5.10596,-4.3438 -0.0583,0.46409 -0.019,2.13211 0.0872,3.70672 0.12437,1.84319 -0.19407,2.62358 -0.89404,2.19098 -0.64358,-0.39775 -1.08721,0.13863 -1.08721,1.3145 0,1.09254 -1.06391,2.82331 -2.36424,3.84615 -1.300338,1.02284 -3.103318,3.19301 -4.006628,4.82258 -0.90331,1.62958 -2.55962,4.10976 -3.68068,5.51152 -1.6042,2.00587 -2.08197,4.2073 -2.24337,10.33695 -0.18494,7.02358 0.0179,7.96904 2.06642,9.62905 1.24932,1.01241 1.92432,2.02965 1.5,2.26054 -1.65416,0.9 -12.27149,0.8172 -12.27149,-0.0958 z m -41,-4.17949 c 1.212959,-0.78387 1.069438,-0.9723 -0.75,-0.98469 -1.2375,-0.008 -2.25,0.43469 -2.25,0.98469 0,1.25292 1.061241,1.25292 3,0 z"
       style="fill:#000000;fill-opacity:1;display:inline"
       sodipodi:nodetypes="ccssccsssssscssccsscssscsscsssssssssscscssssssscssscsssssssssssssssssssssssssssssssccssssssssssssssssssssssssssssssssssssssssssssssssssssssscssccssssssccccssss" />
    <path
       style="fill:#ffffff;stroke:#000000;stroke-width:1;stroke-linecap:square;stroke-linejoin:miter;stroke-miterlimit:4;stroke-opacity:1;stroke-dasharray:none;stroke-dashoffset:0;display:inline"
       d="m 179.89453,94.657754 13.21967,10.281966 -7.97377,0.20984 z"
       id="path3067-3-7"
       inkscape:connector-curvature="0"
       sodipodi:nodetypes="cccc" />
    <path
       style="fill:#ffffff;fill-opacity:1;fill-rule:nonzero;stroke:#000000;stroke-width:1;stroke-linecap:square;stroke-linejoin:miter;stroke-miterlimit:4;stroke-opacity:1;stroke-dasharray:none;stroke-dashoffset:0;display:inline"
       d="m 175.00261,62.86759 c 0,0 -5.2459,9.652459 -5.03607,10.491803 0.20984,0.839345 -0.41967,7.344263 0.20984,8.393443 0.62951,1.04918 5.87541,5.245902 5.87541,5.245902 l 5.03607,-1.678689 0.83934,-4.406557 -6.29508,-4.406558 z"
       id="path3091-5"
       inkscape:connector-curvature="0" />
    <g
       style="font-size:40px;font-style:normal;font-variant:normal;font-weight:normal;font-stretch:normal;text-align:center;line-height:100%;letter-spacing:0px;word-spacing:0px;writing-mode:lr-tb;text-anchor:middle;fill:#ffffff;fill-opacity:1;stroke:none;display:inline;font-family:Ubuntu;-inkscape-font-specification:Ubuntu"
       id="text3883-3">
      <path
         d="m 41.771598,83.960441 c 2.837324,2e-6 4.255989,-0.970664 4.256,-2.912 -1.1e-5,-0.597328 -0.130677,-1.101328 -0.392,-1.512 -0.242677,-0.429327 -0.578676,-0.793326 -1.008,-1.092 -0.429342,-0.317326 -0.924008,-0.587992 -1.484,-0.812 -0.541341,-0.223992 -1.120007,-0.447991 -1.736,-0.672 -0.709339,-0.242658 -1.381338,-0.513324 -2.016,-0.812 -0.63467,-0.317323 -1.185336,-0.681323 -1.652,-1.092 -0.466669,-0.429322 -0.840002,-0.933322 -1.12,-1.512 -0.261334,-0.578654 -0.392001,-1.278653 -0.392,-2.1 -10e-7,-1.698651 0.578665,-3.023983 1.736,-3.976 1.15733,-0.951981 2.753328,-1.42798 4.788,-1.428 1.175991,2e-5 2.23999,0.130686 3.192,0.392 0.970655,0.242686 1.679988,0.513352 2.128,0.812 l -0.868,2.212 c -0.392012,-0.24265 -0.980011,-0.475983 -1.764,-0.7 -0.765343,-0.242649 -1.661342,-0.363983 -2.688,-0.364 -0.522674,1.7e-5 -1.008006,0.05602 -1.456,0.168 -0.448006,0.112017 -0.840005,0.280017 -1.176,0.504 -0.336004,0.224016 -0.606671,0.513349 -0.812,0.868 -0.18667,0.336015 -0.280004,0.737348 -0.28,1.204 -4e-6,0.522681 0.102663,0.961347 0.308,1.316 0.205329,0.35468 0.494662,0.672013 0.868,0.952 0.373328,0.261345 0.802661,0.504012 1.288,0.728 0.503993,0.224011 1.054659,0.448011 1.652,0.672 0.839991,0.336011 1.605324,0.67201 2.296,1.008 0.709322,0.33601 1.315989,0.737342 1.82,1.204 0.522654,0.466675 0.923987,1.026674 1.204,1.68 0.279987,0.634673 0.419986,1.409339 0.42,2.324 -1.4e-5,1.69867 -0.625346,3.005335 -1.876,3.92 -1.23201,0.914666 -2.977342,1.371999 -5.236,1.372 -0.765339,-1e-6 -1.474672,-0.056 -2.128,-0.168 -0.63467,-0.09333 -1.204003,-0.205334 -1.708,-0.336 -0.504002,-0.149333 -0.942668,-0.298666 -1.316,-0.448 -0.354668,-0.168 -0.634667,-0.307999 -0.84,-0.42 l 0.812,-2.24 c 0.429332,0.242669 1.082664,0.513336 1.96,0.812 0.877329,0.298669 1.950661,0.448002 3.22,0.448"
         style="font-size:28px;line-height:100%;fill:#ffffff"
         id="path3972" />
      <path
         d="m 54.406598,71.332441 5.516,0 0,2.184 -5.516,0 0,6.72 c -4e-6,0.728005 0.056,1.334671 0.168,1.82 0.111995,0.46667 0.279995,0.840003 0.504,1.12 0.223995,0.261336 0.503995,0.448002 0.84,0.56 0.335994,0.112002 0.727994,0.168002 1.176,0.168 0.783992,2e-6 1.409325,-0.084 1.876,-0.252 0.485324,-0.186664 0.821324,-0.317331 1.008,-0.392 l 0.504,2.156 c -0.261343,0.130667 -0.718676,0.289333 -1.372,0.476 -0.653342,0.205333 -1.400008,0.307999 -2.24,0.308 -0.989339,-10e-7 -1.810672,-0.121334 -2.464,-0.364 -0.63467,-0.261333 -1.148003,-0.644 -1.54,-1.148 -0.392002,-0.503998 -0.672002,-1.119998 -0.84,-1.848 -0.149335,-0.746663 -0.224002,-1.605329 -0.224,-2.576 l 0,-12.992 2.604,-0.448 0,4.508"
         style="font-size:28px;line-height:100%;fill:#ffffff"
         id="path3974" />
      <path
         d="m 68.164223,84.016441 c 0.615993,2e-6 1.157325,-0.0093 1.624,-0.028 0.485325,-0.03733 0.886657,-0.09333 1.204,-0.168 l 0,-4.34 c -0.186676,-0.09333 -0.494676,-0.167994 -0.924,-0.224 -0.410675,-0.07466 -0.914674,-0.111993 -1.512,-0.112 -0.392007,7e-6 -0.812006,0.02801 -1.26,0.084 -0.429339,0.05601 -0.830672,0.17734 -1.204,0.364 -0.354671,0.168006 -0.653337,0.410672 -0.896,0.728 -0.24267,0.298672 -0.364003,0.700005 -0.364,1.204 -3e-6,0.933337 0.298663,1.586669 0.896,1.96 0.597328,0.354669 1.409328,0.532002 2.436,0.532 m -0.224,-13.048 c 1.045326,1.5e-5 1.922658,0.140015 2.632,0.42 0.72799,0.261347 1.306656,0.644014 1.736,1.148 0.447989,0.485346 0.765322,1.073345 0.952,1.764 0.186655,0.672011 0.279988,1.418677 0.28,2.24 l 0,9.1 c -0.224012,0.03733 -0.541345,0.09333 -0.952,0.168 -0.392011,0.056 -0.84001,0.112 -1.344,0.168 -0.504009,0.056 -1.054675,0.102666 -1.652,0.14 -0.578674,0.056 -1.15734,0.084 -1.736,0.084 -0.821339,-10e-7 -1.577338,-0.084 -2.268,-0.252 -0.69067,-0.168 -1.288003,-0.429333 -1.792,-0.784 -0.504002,-0.373332 -0.896001,-0.858665 -1.176,-1.456 -0.280001,-0.597331 -0.420001,-1.315997 -0.42,-2.156 -1e-6,-0.802662 0.158666,-1.493328 0.476,-2.072 0.335998,-0.57866 0.783998,-1.045326 1.344,-1.4 0.559997,-0.354659 1.21333,-0.615992 1.96,-0.784 0.746661,-0.167991 1.530661,-0.251991 2.352,-0.252 0.261326,9e-6 0.531993,0.01867 0.812,0.056 0.279992,0.01868 0.541325,0.05601 0.784,0.112 0.261325,0.03734 0.485324,0.07467 0.672,0.112 0.186657,0.03734 0.317324,0.06534 0.392,0.084 l 0,-0.728 c -10e-6,-0.429324 -0.04668,-0.849323 -0.14,-1.26 -0.09334,-0.429323 -0.261342,-0.802656 -0.504,-1.12 -0.242675,-0.335988 -0.578675,-0.597321 -1.008,-0.784 -0.410674,-0.205321 -0.952007,-0.307988 -1.624,-0.308 -0.858672,1.2e-5 -1.614671,0.06535 -2.268,0.196 -0.63467,0.112012 -1.11067,0.233345 -1.428,0.364 l -0.308,-2.156 c 0.335997,-0.149319 0.895997,-0.289319 1.68,-0.42 0.783995,-0.149319 1.633328,-0.223985 2.548,-0.224"
         style="font-size:28px;line-height:100%;fill:#ffffff"
         id="path3976" />
      <path
         d="m 77.837786,71.752441 c 0.59733,-0.149319 1.38133,-0.307986 2.352,-0.476 0.989328,-0.167985 2.127993,-0.251985 3.416,-0.252 0.933324,1.5e-5 1.717324,0.130681 2.352,0.392 0.634656,0.242681 1.166655,0.60668 1.596,1.092 0.130655,-0.09332 0.335988,-0.223987 0.616,-0.392 0.279987,-0.167986 0.62532,-0.326653 1.036,-0.476 0.410653,-0.167986 0.867985,-0.307986 1.372,-0.42 0.503984,-0.130652 1.045317,-0.195985 1.624,-0.196 1.119982,1.5e-5 2.034648,0.168014 2.744,0.504 0.709313,0.317347 1.259979,0.77468 1.652,1.372 0.410645,0.597346 0.681312,1.306678 0.812,2.128 0.149311,0.821343 0.223978,1.717342 0.224,2.688 l 0,8.176 -2.604,0 0,-7.616 c -1.9e-5,-0.858658 -0.04669,-1.595991 -0.14,-2.212 -0.07469,-0.61599 -0.233352,-1.129323 -0.476,-1.54 -0.224019,-0.410655 -0.541352,-0.709321 -0.952,-0.896 -0.392018,-0.205321 -0.90535,-0.307988 -1.54,-0.308 -0.877349,1.2e-5 -1.605348,0.121346 -2.184,0.364 -0.560014,0.224012 -0.94268,0.429345 -1.148,0.616 0.14932,0.485344 0.26132,1.017344 0.336,1.596 0.07465,0.578676 0.111987,1.185342 0.112,1.82 l 0,8.176 -2.604,0 0,-7.616 c -1.1e-5,-0.858658 -0.04668,-1.595991 -0.14,-2.212 -0.09334,-0.61599 -0.261344,-1.129323 -0.504,-1.54 -0.22401,-0.410655 -0.541343,-0.709321 -0.952,-0.896 -0.392009,-0.205321 -0.896008,-0.307988 -1.512,-0.308 -0.261341,1.2e-5 -0.541341,0.0093 -0.84,0.028 -0.298673,0.01868 -0.588006,0.04668 -0.868,0.084 -0.261339,0.01868 -0.504006,0.04668 -0.728,0.084 -0.224005,0.03735 -0.373338,0.06534 -0.448,0.084 l 0,12.292 -2.604,0 0,-14.14"
         style="font-size:28px;line-height:100%;fill:#ffffff"
         id="path3978" />
      <path
         d="m 112.06297,78.640441 c -1e-5,-1.698658 -0.42001,-3.005323 -1.26,-3.92 -0.84001,-0.914655 -1.96001,-1.371988 -3.36,-1.372 -0.784,1.2e-5 -1.4,0.02801 -1.848,0.084 -0.42934,0.05601 -0.77467,0.121345 -1.036,0.196 l 0,9.184 c 0.31733,0.261336 0.77466,0.513336 1.372,0.756 0.59733,0.242669 1.25066,0.364002 1.96,0.364 0.74666,2e-6 1.38133,-0.130665 1.904,-0.392 0.54133,-0.279998 0.97999,-0.653331 1.316,-1.12 0.33599,-0.48533 0.57866,-1.045329 0.728,-1.68 0.14932,-0.653328 0.22399,-1.353327 0.224,-2.1 m 2.716,0 c -1e-5,1.101339 -0.14934,2.118672 -0.448,3.052 -0.28001,0.933336 -0.70001,1.736002 -1.26,2.408 -0.56001,0.672001 -1.25068,1.194667 -2.072,1.568 -0.80267,0.373333 -1.72667,0.559999 -2.772,0.56 -0.84,-10e-7 -1.58667,-0.112 -2.24,-0.336 -0.63467,-0.224 -1.11067,-0.438666 -1.428,-0.644 l 0,5.824 -2.604,0 0,-19.292 c 0.616,-0.149319 1.38133,-0.307986 2.296,-0.476 0.93333,-0.186652 2.00666,-0.279985 3.22,-0.28 1.11999,1.5e-5 2.12799,0.177348 3.024,0.532 0.89599,0.35468 1.66132,0.85868 2.296,1.512 0.63466,0.653345 1.11999,1.456011 1.456,2.408 0.35466,0.933343 0.53199,1.988008 0.532,3.164"
         style="font-size:28px;line-height:100%;fill:#ffffff"
         id="path3980" />
      <path
         d="m 117.6586,78.640441 c 0,-1.287992 0.18666,-2.407991 0.56,-3.36 0.37333,-0.970655 0.868,-1.773321 1.484,-2.408 0.61599,-0.634653 1.32533,-1.110653 2.128,-1.428 0.80266,-0.317319 1.62399,-0.475985 2.464,-0.476 1.95999,1.5e-5 3.46265,0.616014 4.508,1.848 1.04532,1.213345 1.56798,3.070676 1.568,5.572 -2e-5,0.112007 -2e-5,0.26134 0,0.448 -2e-5,0.168007 -0.009,0.326673 -0.028,0.476 l -9.968,0 c 0.11199,1.512005 0.55066,2.660004 1.316,3.444 0.76533,0.784002 1.95999,1.176002 3.584,1.176 0.91466,2e-6 1.67999,-0.07466 2.296,-0.224 0.63465,-0.167998 1.11065,-0.326664 1.428,-0.476 l 0.364,2.184 c -0.31735,0.168 -0.87735,0.345333 -1.68,0.532 -0.78401,0.186666 -1.68001,0.279999 -2.688,0.28 -1.26934,-10e-7 -2.37067,-0.186667 -3.304,-0.56 -0.91467,-0.392 -1.67067,-0.923999 -2.268,-1.596 -0.59734,-0.671998 -1.04534,-1.46533 -1.344,-2.38 -0.28,-0.933328 -0.42,-1.950661 -0.42,-3.052 m 9.996,-1.428 c 0.0186,-1.17599 -0.28001,-2.137323 -0.896,-2.884 -0.59734,-0.765321 -1.42801,-1.147987 -2.492,-1.148 -0.59734,1.3e-5 -1.12934,0.121346 -1.596,0.364 -0.44801,0.224012 -0.83067,0.522678 -1.148,0.896 -0.31734,0.373344 -0.56934,0.802677 -0.756,1.288 -0.16801,0.485343 -0.28001,0.980009 -0.336,1.484 l 7.224,0"
         style="font-size:28px;line-height:100%;fill:#ffffff"
         id="path3982" />
      <path
         d="m 143.51922,74.412441 c -0.31734,-0.261322 -0.77467,-0.513322 -1.372,-0.756 -0.59734,-0.242654 -1.25067,-0.363988 -1.96,-0.364 -0.74667,1.2e-5 -1.39067,0.140012 -1.932,0.42 -0.52267,0.261345 -0.952,0.634678 -1.288,1.12 -0.336,0.466677 -0.57867,1.026676 -0.728,1.68 -0.14933,0.653342 -0.224,1.353341 -0.224,2.1 0,1.698672 0.42,3.014671 1.26,3.948 0.84,0.914669 1.96,1.372002 3.36,1.372 0.70933,2e-6 1.29733,-0.028 1.764,-0.084 0.48533,-0.07466 0.85866,-0.149331 1.12,-0.224 l 0,-9.212 m 0,-9.8 2.604,-0.448 0,21.308 c -0.59734,0.168 -1.36268,0.336 -2.296,0.504 -0.93334,0.168 -2.00667,0.251999 -3.22,0.252 -1.12,-10e-7 -2.128,-0.177334 -3.024,-0.532 -0.896,-0.354666 -1.66133,-0.858666 -2.296,-1.512 -0.63467,-0.653331 -1.12933,-1.446664 -1.484,-2.38 -0.336,-0.951995 -0.504,-2.015994 -0.504,-3.192 0,-1.119992 0.14,-2.146657 0.42,-3.08 0.29867,-0.933322 0.728,-1.735988 1.288,-2.408 0.56,-0.671987 1.24133,-1.194653 2.044,-1.568 0.82133,-0.373319 1.75466,-0.559985 2.8,-0.56 0.83999,1.5e-5 1.57733,0.112015 2.212,0.336 0.65333,0.224014 1.13866,0.438681 1.456,0.644 l 0,-7.364"
         style="font-size:28px;line-height:100%;fill:#ffffff"
         id="path3984" />
      <path
         d="m 149.81485,78.640441 c 0,-1.287992 0.18666,-2.407991 0.56,-3.36 0.37333,-0.970655 0.868,-1.773321 1.484,-2.408 0.61599,-0.634653 1.32533,-1.110653 2.128,-1.428 0.80266,-0.317319 1.62399,-0.475985 2.464,-0.476 1.95999,1.5e-5 3.46265,0.616014 4.508,1.848 1.04532,1.213345 1.56798,3.070676 1.568,5.572 -2e-5,0.112007 -2e-5,0.26134 0,0.448 -2e-5,0.168007 -0.009,0.326673 -0.028,0.476 l -9.968,0 c 0.11199,1.512005 0.55066,2.660004 1.316,3.444 0.76533,0.784002 1.95999,1.176002 3.584,1.176 0.91466,2e-6 1.67999,-0.07466 2.296,-0.224 0.63465,-0.167998 1.11065,-0.326664 1.428,-0.476 l 0.364,2.184 c -0.31735,0.168 -0.87735,0.345333 -1.68,0.532 -0.78401,0.186666 -1.68001,0.279999 -2.688,0.28 -1.26934,-10e-7 -2.37067,-0.186667 -3.304,-0.56 -0.91467,-0.392 -1.67067,-0.923999 -2.268,-1.596 -0.59734,-0.671998 -1.04534,-1.46533 -1.344,-2.38 -0.28,-0.933328 -0.42,-1.950661 -0.42,-3.052 m 9.996,-1.428 c 0.0187,-1.17599 -0.28001,-2.137323 -0.896,-2.884 -0.59734,-0.765321 -1.42801,-1.147987 -2.492,-1.148 -0.59734,1.3e-5 -1.12934,0.121346 -1.596,0.364 -0.44801,0.224012 -0.83067,0.522678 -1.148,0.896 -0.31734,0.373344 -0.56934,0.802677 -0.756,1.288 -0.16801,0.485343 -0.28001,0.980009 -0.336,1.484 l 7.224,0"
         style="font-size:28px;line-height:100%;fill:#ffffff"
         id="path3986" />
      <path
         d="m 31.795598,93.54332 1.94,0 0,13.86 -1.94,0 0,-6.4 -6.78,0 0,6.4 -1.94,0 0,-13.86 1.94,0 0,5.78 6.78,0 0,-5.78"
         style="font-size:20px;line-height:100%;fill:#ffffff"
         id="path3988" />
      <path
         d="m 45.337161,107.10332 c -0.426676,0.10667 -0.993342,0.22 -1.7,0.34 -0.693341,0.12 -1.500007,0.18 -2.42,0.18 -0.800005,0 -1.473338,-0.11333 -2.02,-0.34 -0.54667,-0.24 -0.986669,-0.57333 -1.32,-1 -0.333335,-0.42667 -0.573335,-0.92666 -0.72,-1.5 -0.146668,-0.58666 -0.220002,-1.23333 -0.22,-1.94 l 0,-5.84 1.86,0 0,5.44 c -3e-6,1.26667 0.199996,2.17334 0.6,2.72 0.399996,0.54667 1.073328,0.82 2.02,0.82 0.199994,0 0.40666,-0.007 0.62,-0.02 0.213326,-0.0133 0.413326,-0.0267 0.6,-0.04 0.186659,-0.0267 0.353326,-0.0467 0.5,-0.06 0.159992,-0.0267 0.273325,-0.0533 0.34,-0.08 l 0,-8.78 1.86,0 0,10.1"
         style="font-size:20px;line-height:100%;fill:#ffffff"
         id="path3990" />
      <path
         d="m 55.061536,106.36332 c -0.160008,0.10667 -0.473341,0.24667 -0.94,0.42 -0.45334,0.16 -0.986673,0.24 -1.6,0.24 -0.626672,0 -1.220004,-0.1 -1.78,-0.3 -0.54667,-0.2 -1.026669,-0.50667 -1.44,-0.92 -0.413335,-0.42666 -0.740002,-0.95333 -0.98,-1.58 -0.240001,-0.62666 -0.360001,-1.37333 -0.36,-2.24 -1e-6,-0.75999 0.113332,-1.45333 0.34,-2.08 0.226665,-0.639992 0.553331,-1.186658 0.98,-1.64 0.439997,-0.466657 0.97333,-0.826657 1.6,-1.08 0.626662,-0.266656 1.333328,-0.39999 2.12,-0.4 0.86666,1e-5 1.619992,0.06668 2.26,0.2 0.653324,0.12001 1.19999,0.233343 1.64,0.34 l 0,9.28 c -1e-5,1.6 -0.413343,2.76 -1.24,3.48 -0.826675,0.72 -2.080007,1.08 -3.76,1.08 -0.653338,0 -1.273337,-0.0533 -1.86,-0.16 -0.573336,-0.10667 -1.073335,-0.23334 -1.5,-0.38 l 0.34,-1.62 c 0.373331,0.14666 0.826664,0.27333 1.36,0.38 0.546663,0.12 1.113329,0.18 1.7,0.18 1.106661,0 1.899993,-0.22 2.38,-0.66 0.493325,-0.44 0.739992,-1.14 0.74,-2.1 l 0,-0.44 m -0.02,-7.72 c -0.186675,-0.05333 -0.440008,-0.09999 -0.76,-0.14 -0.306674,-0.05333 -0.726673,-0.07999 -1.26,-0.08 -1.000005,9e-6 -1.773338,0.326675 -2.32,0.98 -0.533337,0.65334 -0.800003,1.52001 -0.8,2.6 -3e-6,0.6 0.07333,1.11334 0.22,1.54 0.159997,0.42667 0.366663,0.78 0.62,1.06 0.266663,0.28 0.566662,0.48667 0.9,0.62 0.346662,0.13334 0.699995,0.2 1.06,0.2 0.493327,0 0.94666,-0.0667 1.36,-0.2 0.413326,-0.14666 0.739992,-0.31333 0.98,-0.5 l 0,-6.08"
         style="font-size:20px;line-height:100%;fill:#ffffff"
         id="path3992" />
      <path
         d="m 59.524036,102.22332 c -1e-6,-0.91999 0.133332,-1.71999 0.4,-2.4 0.266665,-0.693325 0.619998,-1.266658 1.06,-1.72 0.439997,-0.453324 0.946663,-0.793323 1.52,-1.02 0.573329,-0.226656 1.159995,-0.33999 1.76,-0.34 1.399993,1e-5 2.473325,0.44001 3.22,1.32 0.746657,0.866675 1.11999,2.19334 1.12,3.98 -10e-6,0.08 -10e-6,0.18667 0,0.32 -10e-6,0.12 -0.0067,0.23334 -0.02,0.34 l -7.12,0 c 0.08,1.08 0.39333,1.9 0.94,2.46 0.546662,0.56 1.399995,0.84 2.56,0.84 0.653326,0 1.199992,-0.0533 1.64,-0.16 0.453325,-0.12 0.793324,-0.23333 1.02,-0.34 l 0.26,1.56 c -0.226676,0.12 -0.626675,0.24667 -1.2,0.38 -0.560008,0.13333 -1.200007,0.2 -1.92,0.2 -0.906672,0 -1.693338,-0.13333 -2.36,-0.4 -0.653337,-0.28 -1.193336,-0.66 -1.62,-1.14 -0.426669,-0.48 -0.746668,-1.04666 -0.96,-1.7 -0.200001,-0.66666 -0.300001,-1.39333 -0.3,-2.18 m 7.14,-1.02 c 0.01333,-0.83999 -0.200008,-1.526659 -0.64,-2.06 -0.426674,-0.546658 -1.020007,-0.819991 -1.78,-0.82 -0.426672,9e-6 -0.806672,0.08667 -1.14,0.26 -0.320004,0.160008 -0.593337,0.373342 -0.82,0.64 -0.22667,0.266674 -0.40667,0.573341 -0.54,0.92 -0.120003,0.34667 -0.200003,0.70001 -0.24,1.06 l 5.16,0"
         style="font-size:20px;line-height:100%;fill:#ffffff"
         id="path3994" />
      <path
         d="m 77.625286,97.00332 3.94,0 0,1.56 -3.94,0 0,4.8 c -3e-6,0.52 0.04,0.95334 0.12,1.3 0.08,0.33334 0.199996,0.6 0.36,0.8 0.159996,0.18667 0.359996,0.32 0.6,0.4 0.239995,0.08 0.519995,0.12 0.84,0.12 0.559994,0 1.00666,-0.06 1.34,-0.18 0.34666,-0.13333 0.586659,-0.22667 0.72,-0.28 l 0.36,1.54 c -0.186674,0.0933 -0.513341,0.20667 -0.98,0.34 -0.466673,0.14667 -1.000006,0.22 -1.6,0.22 -0.706671,0 -1.293337,-0.0867 -1.76,-0.26 -0.453336,-0.18667 -0.820003,-0.46 -1.1,-0.82 -0.280002,-0.36 -0.480002,-0.8 -0.6,-1.32 -0.106668,-0.53333 -0.160002,-1.14666 -0.16,-1.84 l 0,-9.28 1.86,-0.32 0,3.22"
         style="font-size:20px;line-height:100%;fill:#ffffff"
         id="path3996" />
      <path
         d="m 83.156848,102.22332 c -10e-7,-0.91999 0.133333,-1.71999 0.4,-2.4 0.266665,-0.693325 0.619998,-1.266658 1.06,-1.72 0.439998,-0.453324 0.946664,-0.793323 1.52,-1.02 0.573329,-0.226656 1.159995,-0.33999 1.76,-0.34 1.399993,1e-5 2.473326,0.44001 3.22,1.32 0.746657,0.866675 1.11999,2.19334 1.12,3.98 -10e-6,0.08 -10e-6,0.18667 0,0.32 -10e-6,0.12 -0.0067,0.23334 -0.02,0.34 l -7.12,0 c 0.08,1.08 0.39333,1.9 0.94,2.46 0.546663,0.56 1.399995,0.84 2.56,0.84 0.653327,0 1.199993,-0.0533 1.64,-0.16 0.453325,-0.12 0.793325,-0.23333 1.02,-0.34 l 0.26,1.56 c -0.226675,0.12 -0.626675,0.24667 -1.2,0.38 -0.560007,0.13333 -1.200007,0.2 -1.92,0.2 -0.906672,0 -1.693337,-0.13333 -2.36,-0.4 -0.653336,-0.28 -1.193336,-0.66 -1.62,-1.14 -0.426668,-0.48 -0.746668,-1.04666 -0.96,-1.7 -0.200001,-0.66666 -0.300001,-1.39333 -0.3,-2.18 m 7.14,-1.02 c 0.01333,-0.83999 -0.200008,-1.526659 -0.64,-2.06 -0.426673,-0.546658 -1.020006,-0.819991 -1.78,-0.82 -0.426672,9e-6 -0.806671,0.08667 -1.14,0.26 -0.320004,0.160008 -0.593337,0.373342 -0.82,0.64 -0.22667,0.266674 -0.40667,0.573341 -0.54,0.92 -0.120003,0.34667 -0.200003,0.70001 -0.24,1.06 l 5.16,0"
         style="font-size:20px;line-height:100%;fill:#ffffff"
         id="path3998" />
      <path
         d="m 101.12872,107.40332 c -0.14667,-0.29333 -0.32667,-0.62 -0.54,-0.98 -0.21334,-0.36 -0.44667,-0.72667 -0.699997,-1.1 -0.253339,-0.38666 -0.513339,-0.76666 -0.78,-1.14 -0.266672,-0.37333 -0.526671,-0.72666 -0.78,-1.06 -0.253338,0.33334 -0.513337,0.69334 -0.78,1.08 -0.26667,0.37334 -0.52667,0.75334 -0.78,1.14 -0.240003,0.37333 -0.466669,0.74 -0.68,1.1 -0.213335,0.36 -0.393335,0.68 -0.54,0.96 l -1.92,0 c 0.466666,-0.90667 1.019999,-1.82667 1.66,-2.76 0.653331,-0.94666 1.299997,-1.84666 1.94,-2.7 l -3.44,-4.94 2.1,0 2.48,3.64 2.499997,-3.64 1.98,0 -3.359997,4.82 c 0.639997,0.86667 1.293327,1.78667 1.959997,2.76 0.67999,0.96 1.25333,1.9 1.72,2.82 l -2.04,0"
         style="font-size:20px;line-height:100%;fill:#ffffff"
         id="path4000" />
      <path
         d="m 106.8831,97.00332 3.94,0 0,1.56 -3.94,0 0,4.8 c 0,0.52 0.04,0.95334 0.12,1.3 0.08,0.33334 0.19999,0.6 0.36,0.8 0.15999,0.18667 0.35999,0.32 0.6,0.4 0.23999,0.08 0.51999,0.12 0.84,0.12 0.55999,0 1.00666,-0.06 1.34,-0.18 0.34666,-0.13333 0.58666,-0.22667 0.72,-0.28 l 0.36,1.54 c -0.18668,0.0933 -0.51334,0.20667 -0.98,0.34 -0.46667,0.14667 -1.00001,0.22 -1.6,0.22 -0.70667,0 -1.29334,-0.0867 -1.76,-0.26 -0.45334,-0.18667 -0.82,-0.46 -1.1,-0.82 -0.28,-0.36 -0.48,-0.8 -0.6,-1.32 -0.10667,-0.53333 -0.16,-1.14666 -0.16,-1.84 l 0,-9.28 1.86,-0.32 0,3.22"
         style="font-size:20px;line-height:100%;fill:#ffffff"
         id="path4002" />
      <path
         d="m 119.53935,97.00332 3.94,0 0,1.56 -3.94,0 0,4.8 c 0,0.52 0.04,0.95334 0.12,1.3 0.08,0.33334 0.19999,0.6 0.36,0.8 0.15999,0.18667 0.35999,0.32 0.6,0.4 0.23999,0.08 0.51999,0.12 0.84,0.12 0.55999,0 1.00666,-0.06 1.34,-0.18 0.34666,-0.13333 0.58666,-0.22667 0.72,-0.28 l 0.36,1.54 c -0.18668,0.0933 -0.51334,0.20667 -0.98,0.34 -0.46667,0.14667 -1.00001,0.22 -1.6,0.22 -0.70667,0 -1.29334,-0.0867 -1.76,-0.26 -0.45334,-0.18667 -0.82,-0.46 -1.1,-0.82 -0.28,-0.36 -0.48,-0.8 -0.6,-1.32 -0.10667,-0.53333 -0.16,-1.14666 -0.16,-1.84 l 0,-9.28 1.86,-0.32 0,3.22"
         style="font-size:20px;line-height:100%;fill:#ffffff"
         id="path4004" />
      <path
         d="m 134.75279,102.20332 c -1e-5,0.82667 -0.12001,1.57334 -0.36,2.24 -0.24001,0.66667 -0.58001,1.24 -1.02,1.72 -0.42668,0.48 -0.94001,0.85333 -1.54,1.12 -0.60001,0.25333 -1.25334,0.38 -1.96,0.38 -0.70668,0 -1.36001,-0.12667 -1.96,-0.38 -0.60001,-0.26667 -1.12001,-0.64 -1.56,-1.12 -0.42667,-0.48 -0.76001,-1.05333 -1,-1.72 -0.24001,-0.66666 -0.36001,-1.41333 -0.36,-2.24 -1e-5,-0.81333 0.11999,-1.55333 0.36,-2.22 0.23999,-0.679992 0.57333,-1.259991 1,-1.74 0.43999,-0.479991 0.95999,-0.846657 1.56,-1.1 0.59999,-0.266656 1.25332,-0.39999 1.96,-0.4 0.70666,1e-5 1.35999,0.133344 1.96,0.4 0.59999,0.253343 1.11332,0.620009 1.54,1.1 0.43999,0.480009 0.77999,1.060008 1.02,1.74 0.23999,0.66667 0.35999,1.40667 0.36,2.22 m -1.94,0 c -1e-5,-1.17333 -0.26668,-2.09999 -0.8,-2.78 -0.52001,-0.693325 -1.23334,-1.039991 -2.14,-1.04 -0.90668,9e-6 -1.62667,0.346675 -2.16,1.04 -0.52001,0.68001 -0.78001,1.60667 -0.78,2.78 -1e-5,1.17334 0.25999,2.10667 0.78,2.8 0.53333,0.68 1.25332,1.02 2.16,1.02 0.90666,0 1.61999,-0.34 2.14,-1.02 0.53332,-0.69333 0.79999,-1.62666 0.8,-2.8"
         style="font-size:20px;line-height:100%;fill:#ffffff"
         id="path4006" />
      <path
         d="m 145.77904,93.40332 c 1.94666,1.4e-5 3.43999,0.373347 4.48,1.12 1.05332,0.733345 1.57998,1.833344 1.58,3.3 -2e-5,0.800009 -0.14668,1.486675 -0.44,2.06 -0.28001,0.56001 -0.69335,1.02001 -1.24,1.38 -0.53335,0.34667 -1.18668,0.60001 -1.96,0.76 -0.77334,0.16001 -1.64668,0.24 -2.62,0.24 l -1.54,0 0,5.14 -1.94,0 0,-13.66 c 0.54666,-0.13332 1.15333,-0.219986 1.82,-0.26 0.67999,-0.05332 1.29999,-0.07999 1.86,-0.08 m 0.16,1.7 c -0.82668,1.2e-5 -1.46001,0.02001 -1.9,0.06 l 0,5.44 1.46,0 c 0.66666,1e-5 1.26666,-0.04 1.8,-0.12 0.53332,-0.0933 0.97999,-0.23999 1.34,-0.44 0.37332,-0.213326 0.65999,-0.499992 0.86,-0.86 0.19999,-0.359992 0.29999,-0.819991 0.3,-1.38 -1e-5,-0.533323 -0.10668,-0.973323 -0.32,-1.32 -0.20001,-0.346656 -0.48001,-0.619989 -0.84,-0.82 -0.34668,-0.213322 -0.75334,-0.359988 -1.22,-0.44 -0.46668,-0.07999 -0.96001,-0.119988 -1.48,-0.12"
         style="font-size:20px;line-height:100%;fill:#ffffff"
         id="path4008" />
      <path
         d="m 165.62747,100.46332 c -10e-6,1.20001 -0.18668,2.24667 -0.56,3.14 -0.37334,0.88 -0.90001,1.61334 -1.58,2.2 -0.68001,0.57333 -1.49334,1.00667 -2.44,1.3 -0.94667,0.28 -1.98667,0.42 -3.12,0.42 -0.56,0 -1.18,-0.0267 -1.86,-0.08 -0.66667,-0.04 -1.27333,-0.12667 -1.82,-0.26 l 0,-13.44 c 0.54667,-0.13332 1.15333,-0.219986 1.82,-0.26 0.68,-0.05332 1.3,-0.07999 1.86,-0.08 1.13333,1.4e-5 2.17333,0.14668 3.12,0.44 0.94666,0.280013 1.75999,0.713346 2.44,1.3 0.67999,0.573345 1.20666,1.306677 1.58,2.2 0.37332,0.880009 0.55999,1.920008 0.56,3.12 m -7.54,5.36 c 1.84,0 3.21333,-0.46666 4.12,-1.4 0.90666,-0.94666 1.35999,-2.26666 1.36,-3.96 -10e-6,-1.693325 -0.45334,-3.006657 -1.36,-3.94 -0.90667,-0.946655 -2.28,-1.419988 -4.12,-1.42 -0.54667,1.2e-5 -0.97333,0.0067 -1.28,0.02 -0.29333,0.01334 -0.5,0.02668 -0.62,0.04 l 0,10.6 c 0.12,0.0133 0.32667,0.0267 0.62,0.04 0.30667,0.0133 0.73333,0.02 1.28,0.02"
         style="font-size:20px;line-height:100%;fill:#ffffff"
         id="path4010" />
      <path
         d="m 168.50529,107.40332 0,-13.86 8.36,0 0,1.66 -6.42,0 0,4.18 5.7,0 0,1.64 -5.7,0 0,6.38 -1.94,0"
         style="font-size:20px;line-height:100%;fill:#ffffff"
         id="path4012" />
    </g>
  </g>
</svg>
